<?xml version="1.0" encoding="UTF-8"?><svg id="Bud_1.2" xmlns="http://www.w3.org/2000/svg" viewBox="0 0 293.1 363.68"><path d="M37.45,238.6c9.84,6.7,21.28,8.57,26.9,9.09-1.24-1.65-2.59-3.13-4.04-4.26-.13-.1-.27-.21-.4-.32-7.29-.71-18.74-5.26-20.46-6.08-2-.95-3.03,.86-2,1.56Z" fill="#fff"/><path d="M207.09,277.15c8.96,8.51,27.43,19.88,31.29,21.64,3.87,1.76,2.48-2.11,.26-3.03-11.77-6.48-22.29-17.53-27.89-24.05-1.67,1.58-3.17,3.19-4.3,4.79,.19,.2,.4,.42,.64,.64Z" fill="#fff"/><path d="M253.02,237.58c-1.47,.7-7.7,2.88-13.64,3.75-.84,1.45-1.74,2.87-2.67,4.24,4.64-.81,10.75-2.54,18.3-6.43,1.11-.57,0-2.51-2-1.56Z" fill="#fff"/><path d="M149.12,323.37c.37-1.71,1.17-10.63,.97-19.44-1.79-.19-3.44-.43-4.98-.71,.44,8.73,1.01,18.74,1.34,20.15,.6,2.57,2.1,2.67,2.68,0Z" fill="#fff"/><path d="M58.98,296.5c-2.19,.95-3.43,4.67,.38,2.86,3.28-1.56,17.11-10.22,26.44-17.95-1.07-.45-2.03-.91-2.87-1.39-1.32-.76-2.5-1.71-3.57-2.77-2.7,4.55-8.77,12.66-20.39,19.25Z" fill="#fff"/><path d="M292.63,229.32c-1.62-3.91-5.53-6.1-14.86-6.1s-7.72-4.57-13.15-4.57-10.58,4.67-13.34,4.67c-2.02,0-4.65-1.61-6.62-2.08,.08,1.29,.14,2.59,.14,3.9,0,2.13-.4,4.37-1.09,6.63,.16-.16,.25-.25,.25-.25,2.88,0,8.96-1.72,12.96-1.72s9.81-1.81,11.62-2.29c1.81-.48,1.72,1.43,0,2-1.72,.57-1.52,2.57,.57,2,2.1-.57,4.95-1.99,7.34-1.99s6.48-.49,7.72-.58c1.24-.1,2.67,.96,.38,2.67-2.29,1.71-13.72,9.81-15.82,9.81s-2.57,.57-2.57,.95,1.24,1.05,2.19,1.05,2.29,1.24,2.29,2.38-7.24,6.48-10.01,7.72c-2.76,1.24-18.96,9.53-23.63,9.53-3.96,0-5.12-4.71-8.8-6.67-2.03,2.24-3.74,3.94-4.76,4.84-.7,.62-1.57,1.32-2.52,2.08,7.49,3.63,17.7,8.84,19.96,11.36,3.66,4.09,2.92,4.42,1.2,4.18-1.72-.24-2.4,1.6-.96,1.94,1.43,.35,6.6,1.59,9.07,4.01,2.47,2.42,4.59,6.15,6.33,6.99,1.74,.84,1.11,3.38-1.61,2.28-2.72-1.1-2.62,1.51-.95,2.86,1.66,1.35,12.85,9.52,14.08,10.73,1.23,1.21,3.07,3.2-1.8,2.49-4.87-.72-3.71-1.54-8.19-1.69-6.4-.22-8.7-5.1-11.83-4.98-3.12,.12-2.92,.42-2.68,1.72,.24,1.3,.45,1.8,1.72,2.85,1.27,1.06,2.01,5.26-1.46,3.98-3.47-1.28-9.78-3.08-13-3.06-3.22,.03-14.28-3.58-17.51-6.17-3.23-2.59-2.97-6.03-5.28-6.85-2.3-.82-3.58,.74-2.38,2.2,1.19,1.46,2.69,3.42,2.65,4.83-.04,1.41-2.38,2.21-2.26,.39,.12-1.82-5.71-2.9-7.71-5.54-.81-1.07-3.35-2.8-6.07-4.46-4.6,3.67-10.41,7.05-17.6,9.08-.09,.87-.24,1.56-.46,1.98-1.33,2.57-3.04,1.72-3.95,0-.15-.29-.3-.59-.44-.86-.58,.11-1.18,.2-1.78,.29-.04,.18-.08,.37-.11,.58-.67,3.81-3.05,16.86-3.62,21.53-.57,4.67-3.24,1.62-3.91,0-.65-1.57-8.01,24.13-12.45,25.67-.1,.09-.21,.15-.33,.15-.01,0-.03-.01-.04-.01-.01,0-.03,.01-.04,.01-.12,0-.23-.06-.33-.15-4.44-1.54-11.81-27.25-12.45-25.67-.67,1.62-3.34,4.67-3.91,0-.57-4.67-2.95-17.72-3.62-21.53-.67-3.81-1.43-1.72-2.34,0-.91,1.72-2.62,2.57-3.95,0-.91-1.75-.58-8.37-.27-12.38-1.37-.71-2.8-1.34-4.41-1.85-1.37-.44-2.77-.85-4.19-1.26-3.11,2.27-9.68,7.15-11.12,9.1-1.91,2.57-7.72,3.81-7.53,5.53,.19,1.72-2.19,1.05-2.29-.29-.1-1.33,1.33-3.24,2.48-4.67,1.14-1.43-.19-2.86-2.48-2-2.29,.86-3.24,3.05-6.38,5.62-3.14,2.57-14.1,6.38-17.34,6.48-3.24,.1-8.58,2-12.01,3.34-3.43,1.33-2.86-2.67-1.62-3.72,1.24-1.05,1.43-1.52,1.62-2.76,.19-1.24,.38-1.52-2.76-1.52s-7.15,4.1-11.66,4.1-3.3,1.05-8.16,1.91c-4.86,.86-3.1-1.1-1.91-2.29,1.19-1.19,12.1-9.34,13.72-10.67,1.62-1.33,1.62-3.81-1.07-2.67-2.69,1.14-3.41-1.24-1.7-2.1,1.72-.86,6.77-4.57,9.15-6.96s6.57-2.67,8-3.05c1.43-.38,.67-2.1-1.04-1.81-1.72,.29-2.48,0,1.04-4,2.81-3.19,11.15-7.18,14.4-8.65-.73-1.78-1.27-3.46-1.63-4.84-.39-1.49-1.08-3.5-2.01-5.7-5,1.26-5.9,7.28-10.37,7.28s-20.87-8.29-23.63-9.53c-2.76-1.24-10.01-6.57-10.01-7.72s1.33-2.38,2.29-2.38,2.19-.67,2.19-1.05-.48-.95-2.57-.95-13.53-8.1-15.82-9.81c-2.29-1.71-.86-2.77,.38-2.67,1.24,.1,5.34,.58,7.72,.58s5.24,1.42,7.34,1.99,2.29-1.43,.57-2c-1.72-.57-1.81-2.48,0-2,1.81,.48,7.62,2.29,11.63,2.29,2.87,0,6.81,.88,9.87,1.38-1.98-2.79-3.68-6.1-4.72-10.03-6.86-1.48-14.22-4.02-16.59-4.02-3.34,0-4.19,3.24-7.53,3.24s-4.95-2.71-7.62-2.71-12.86,2.9-12.86,11.86,9.81,13.91,13.91,15.73c4.1,1.82-.48,3.71,3.72,7.9,4.19,4.19,13.15,11.34,21.92,13.72,8.77,2.38,12.58,2.86,10.1,4.76-2.48,1.91-17.82,10.58-17.82,17.15s-12.1,10.48-12.1,18.96,6.67,11.05,12.48,11.05,7.53-2.76,11.32-2.76,7.74,2.76,12.02,2.76c20.96,0,26.2-8.02,31.16-8.02s8.67,.59,14.1-1.89c5.43-2.48,5.15-4.1,8.96-7.24,3.81-3.14,2.95,1.72,2.95,4.86s5.72,5.15,5.72,13.72,11.53,16.39,14.01,24.2c2.48,7.81,9.62,17.72,15.53,17.72s12.48-9.53,16.1-18.3,11.91-14.39,11.91-23.44,6.29-9.62,6.29-11.82,1.91-5.05,1.62-8c-.28-2.95,2-2.29,4,0,2,2.29,8.29,10.13,14.31,10.13s10.75,1.78,15.23,1.78,8,4.1,12.01,4.1,9.53,3.81,15.82,3.81,6.48-5.72,10.16-5.72,2.61,4.1,11.57,4.1,12.29-5.53,12.29-11.43-10.01-13.91-10.86-15.44c-.86-1.52,.29-4.38-3.14-5.43-3.43-1.05-1.52-6.38-6.1-7.34s-7.43-6.29-10.01-8.19c-2.57-1.91-1.81-3.33,.1-3.91,18.77-7.05,23.73-13.25,27.54-18.3,3.81-5.05,4.67-2.86,9.72-7.62,5.05-4.76,7.72-9.43,6.1-13.34Z" fill="#fff"/><path d="M60.27,223.86c-.84-2.74-1.32-5.62-1.29-8.64,.19-16.77,12.39-31.06,19.06-31.06s8.77,3.81,8.77,3.81c0,0,2.86-3.43,0-9.34-2.86-5.91-15.82-15.06-15.82-37.16,0,0-2.67-14.1,12.96-23.63,15.63-9.53,16.96-18.49,17.15-22.68,.19-4.19-2.86,3.81-9.53,3.62-6.67-.19-6.86-6.48-6.67-12.96,.19-6.48,.76-20.77,10.67-26.87,9.91-6.1,15.63-5.91,19.44-11.63,3.81-5.72-.19-9.53,6.86-15.25,7.05-5.72,15.06-16.2,34.11-16.58,19.06-.38,42.12,17.91,41.93,26.87-.19,8.96-7.05,12.58-7.05,12.58,0,0,4.76,1.91,9.53,2.1,4.76,.19,9.91,4.38,12.2,7.81,2.29,3.43,5.53,8.77,5.53,15.82s-3.81,20.01-6.29,23.63c0,.19,3.24-.38,7.24-.19,4,.19,6.86,3.05,6.86,4.95s-8.19,8-8.19,17.34,21.92,27.63,21.92,38.31-8,13.53-14.67,17.15c-6.67,3.62-18.1,10.1-17.53,23.25,0,.76,9.15-10.29,17.34-10.29s10.1,13.53,10.1,21.73c0,1.6-.19,3.56-.64,5.73,5-.41,8.18-.76,8.55-.97,.49-.28,1.13-.26,1.86-.08-.82-12.52-5.19-24.07-5.19-29.13,0-5.59,5.84-13.97,8.13-17.02,2.29-3.05,7.12-8.39,7.12-13.72s-6.86-14.23-13.98-20.07c-7.12-5.84-11.43-12.71-11.43-17.03s2.03-8.39,4.57-11.69c2.54-3.3,4.83-7.11,4.83-10.67s-3.05-11.18-3.81-13.47c-.76-2.29-5.34-8.39-5.34-13.72s-5.85-17.28-10.17-21.6-13.97-12.45-13.97-21.09-6.1-14.74-11.69-20.33c-5.59-5.59-24.39-11.69-39.9-11.69s-19.82,5.85-27.44,10.67c-7.62,4.83-16.77,11.18-16.77,19.57s-8.77,4.95-21.34,17.53c-12.58,12.58-12.2,29.47-12.2,37.1s-2.79,16.26-8.13,24.39c-5.34,8.13-10.42,20.07-10.42,29.98s4.32,17.53,4.32,25.67-2.29,13.21-10.67,24.14c-8.39,10.93-7.62,25.16-7.62,25.16,0,3.11,.39,5.92,1.05,8.46,2.81,.6,5.54,1.03,7.81,1.03,1.12,0,3.91,.06,7.86,.16Z" fill="#fff"/><path d="M52.41,233.04s4.9,4.83,9.71,10.16c-.67,.02-1.41,0-2.2-.09,.14,.11,.27,.21,.4,.32,1.45,1.13,2.8,2.61,4.04,4.26,.67,.06,1.28,.11,1.77,.14,3.93,4.78,6.62,8.96,4.3,9.31-.24,.04-.46,.1-.68,.15,.93,2.19,1.62,4.2,2.01,5.7,.36,1.38,.9,3.06,1.63,4.84,.82-.37,1.32-.59,1.32-.59l10.75,5.65c-2.29,.34-4.27,.83-4.27,.83,0,0-.53,1.36-1.82,3.53,1.07,1.06,2.25,2.01,3.57,2.77,.83,.48,1.8,.94,2.87,1.39,1.52-1.26,2.93-2.5,4.15-3.68,.66-.64,1.13-1.18,1.5-1.68l22.23,11.68s-.65,.46-1.65,1.19c1.42,.41,2.83,.82,4.19,1.26,1.6,.51,3.04,1.14,4.41,1.85,.14-1.86,.27-3.16,.27-3.16l23.66,3.21c.11,2.46,.31,6.63,.54,11.13,1.54,.28,3.19,.52,4.98,.71-.09-4.03-.39-8.04-1.04-11.31-4.72-2.32-9.05-6.28-18.97-10.32-15.44-6.29-42.31-4.38-42.5-15.44-.19-11.05,7.24-11.05,8.19-12.2,.95-1.14-10.67,.38-16.01-4.76-4.38-4.22-15.67-13.57-19.49-26.05-3.95-.1-6.75-.16-7.86-.16-2.27,0-5-.43-7.81-1.03,1.03,3.94,2.74,7.24,4.72,10.03,1.2,.2,2.28,.34,3.09,.34Z" fill="#fff"/><path d="M168.01,303.83c.6-.09,1.2-.18,1.78-.29-.67-1.29-1.25-2.17-1.78,.29Z" fill="#fff"/><path d="M242.79,221.32c-.37,.21-3.54,.56-8.55,.97-1.83,8.94-7.94,21.74-22.8,30.48-18.49,10.86-25.16,16.2-29.16,16.2s-7.05-.19-9.53-1.72c.19,0,1.72,7.05,8.77,7.05s14.29-6.1,17.53-5.72c3.24,.38-4.19,9.34-12.39,15.06-3.83,2.68-7.92,5.26-12.3,7.26,.24,2.94,.61,8.39,.27,11.54,7.19-2.03,13-5.41,17.6-9.08-3.97-2.43-8.33-4.74-8.33-4.74l21.62-13.18c.26,.33,.56,.69,.92,1.07,1.13-1.6,2.63-3.21,4.3-4.79-2.7-3.14-4.27-5.23-4.27-5.23,0,0-1.98-.44-4.28-.72l10.46-6.37s3.61,1.64,8.26,3.89c.95-.76,1.81-1.46,2.52-2.08,1.01-.89,2.73-2.59,4.76-4.84-.66-.35-1.4-.63-2.26-.76-2.32-.35,.37-4.54,4.3-9.31,1.67-.1,3.83-.27,6.47-.74,.93-1.38,1.83-2.8,2.67-4.24-1.78,.26-3.54,.41-5.13,.35,4.17-4.63,8.4-8.87,9.45-9.91,.69-2.27,1.09-4.5,1.09-6.63,0-1.31-.06-2.61-.14-3.9-.73-.17-1.37-.2-1.86,.08Z" fill="#fff"/><path d="M66.12,247.83c-.49-.03-1.1-.08-1.77-.14,2.21,2.95,4.05,6.47,5.39,9.61,.22-.06,.44-.12,.68-.15,2.32-.35-.37-4.54-4.3-9.31Z" fill="#fff"/><path d="M59.91,243.11c.79,.08,1.53,.11,2.2,.09-4.81-5.34-9.71-10.16-9.71-10.16-.81,0-1.89-.14-3.09-.34,3.39,4.78,7.58,8.05,10.6,10.41Z" fill="#fff"/><path d="M81.18,273.72s1.98-.49,4.27-.83l-10.75-5.65s-.5,.22-1.32,.59c1.31,3.19,3.24,6.69,5.99,9.42,1.29-2.16,1.82-3.53,1.82-3.53Z" fill="#fff"/><path d="M91.45,276.05c-.38,.5-.84,1.04-1.5,1.68-1.22,1.18-2.63,2.42-4.15,3.68,6.44,2.68,16.78,4.82,26.23,7.52,1-.73,1.65-1.19,1.65-1.19l-22.23-11.68Z" fill="#fff"/><path d="M174.37,290.89c-4.97,2.27-10.32,3.79-16.1,3.79-3.88,0-6.61-.78-9.23-2.07,.65,3.28,.95,7.28,1.04,11.31,2.91,.31,6.16,.48,9.84,.48,2.84,0,5.53-.21,8.08-.58,.53-2.46,1.11-1.58,1.78-.29,1.68-.3,3.3-.68,4.85-1.12,.34-3.15-.03-8.6-.27-11.54Z" fill="#fff"/><path d="M144.56,292.09l-23.66-3.21s-.13,1.3-.27,3.16c6.71,3.48,11.58,8.82,24.47,11.19-.23-4.51-.42-8.67-.54-11.13Z" fill="#fff"/><path d="M230.25,246.31c-3.93,4.78-6.62,8.96-4.3,9.31,.86,.13,1.59,.41,2.26,.76,2.59-2.87,5.69-6.64,8.51-10.81-2.64,.46-4.8,.63-6.47,.74Z" fill="#fff"/><path d="M234.25,241.68c1.59,.05,3.35-.09,5.13-.35,1.82-3.13,3.36-6.38,4.32-9.56-1.05,1.05-5.29,5.29-9.45,9.91Z" fill="#fff"/><path d="M202.21,265.77c2.29,.27,4.28,.72,4.28,.72,0,0,1.57,2.09,4.27,5.23,3.29-3.11,7.2-6.06,10.17-8.43-4.65-2.25-8.26-3.89-8.26-3.89l-10.46,6.37Z" fill="#fff"/><path d="M205.66,277.73c.24-.41,.51-.82,.8-1.23-.36-.39-.67-.74-.92-1.07l-21.62,13.18s4.36,2.31,8.33,4.74c7.39-5.91,11.64-12.57,13.42-15.62Z" fill="#fff"/><path d="M125.11,98.21c3.18,3.69,23.76,19.19,26.43,19.19s6.86-2.29,9.78-6.61c2.92-4.32,5.97-10.8,5.97-11.94s-.76-2.29-2.92-2.41c-2.16-.13-10.93,11.05-14.23,11.05s-9.02-6.73-11.94-8.39c-2.92-1.65-8.26-2.29-12.07-2.67-3.81-.38-1.35,1.39-1.02,1.78Z" fill="#fff"/><path d="M206.04,167.33c.51-1.65,1.52-2.29-3.3-2.29s-11.82,6.48-14.48,6.48c-2.92,0-10.8-9.28-10.8-5.59s4.32,13.85,11.69,13.85,16.39-10.8,16.9-12.45Z" fill="#fff"/><path d="M122.32,223.35c-2.16-3.05-6.48-5.21-8.51-5.72s-4.45-1.14-4.45,4.19c0,.99,.43,2.2,1.18,3.5,4.67,.14,9.21,.28,13.45,.42-.59-.85-1.16-1.68-1.66-2.39Z" fill="#fff"/><path d="M151.42,223.48c-2.69,0-6.26,1.28-9.74,2.82,5.04,.16,8.12,.26,8.12,.26,2.61,0,5.85-.06,9.53-.16-1.36-1.45-3.98-2.92-7.91-2.92Z" fill="#fff"/><path d="M141.68,226.3c-5.22,2.31-10.26,5.18-11.86,5.18s-3.9-2.97-5.83-5.74c-4.24-.13-8.78-.27-13.45-.42,3.25,5.7,12.46,13.27,17.63,13.27,6.35,0,14.45-3.84,16.95-6.35,2.51-2.51,8.2-3.18,9.34-3.18s5.08,1.02,5.84-.13c.32-.48-.01-1.51-.99-2.54-3.68,.1-6.93,.16-9.53,.16,0,0-3.07-.1-8.12-.26Z" fill="#fff"/><path d="M109.1,101.54c-.67,2.67,4,.19,5.81-2.19,1.81-2.38,2.38-6.96-.48-9.53-2.86-2.57-3.62-.76-5.91-2.48-2.29-1.72-3.33-4.86-3.81-6.48-.48-1.62-3.14-1.72-4.1-.29-.95,1.43-2.86,2.1-3.81,.57s-2.67-10.48-2.67-11.72-1.14,0-1.14,0c0,0-1.81,1.33-1.91,3.53-.1,2.19-2,8.77-2.1,13.15-.1,4.38,.57,6,2,6.29,1.43,.29,3.14-2.29,5.72-2.19,2.57,.1,7.24,1.81,8.48,2.95,1.24,1.14,4.57,5.72,3.91,8.39Z" fill="#fff"/><path d="M132.26,155.57c3.53,0,7.43-3.72,9.53-3.36,2.1,.35,7.53,1.36,8.67,2.88,1.14,1.52,5.24,1.72,7.15,1.24,1.91-.48-.29-3.62-1.52-4.12-1.24-.5-4.29-2.16-5.53-3.78-1.24-1.62-3.81-8.39-7.05-8.39,0,0-.76-.86-2.76,1.14-2,2-7.81,2.19-9.72,2.86-1.91,.67-4.29,4.48-4.29,6.86s2,4.67,5.53,4.67Z" fill="#fff"/><path d="M67.08,219.51c-1.52-.57-2.72-.46-2.29,.76,0,0,.47,1.5,1.45,3.75,1.71,.05,3.53,.1,5.45,.15-2.36-2.57-4.14-4.48-4.61-4.66Z" fill="#fff"/><path d="M74.8,237.04c6.96,6.96,13.05,12.01,18.2,12.01s9.43-6.48,9.72-8.67c.29-2.19,0-4.1-1.05-4.76-1.05-.67-9.05,5.05-13.63,3.91-3.15-.79-11.16-9.68-16.35-15.35-1.92-.05-3.74-.11-5.45-.15,1.53,3.49,4.32,8.79,8.55,13.02Z" fill="#fff"/><path d="M181.33,280.59c.38-2.57-4.76-2-6.38-2.67-1.62-.67-3.81-3.34-7.15-3.34s-7.15,5.05-10.58,5.05-9.43-3.24-12.29-4.86c-2.86-1.62-13.45-3.61-14.48-3.81-1.62-.32-4.67-1.43-5.81,1.72-1.14,3.14,17.25,6.86,22.39,9.72,5.15,2.86,8.77,6.48,15.44,6.48s18.49-5.72,18.87-8.29Z" fill="#fff"/><path d="M204.68,246.85c1.62-1.43,3.24-1.77,4.1-1.81,2-.1,8.58-.95,9.72-3.91,1.14-2.95,2.57-8.29,3.72-9.53,1.14-1.24,1.72-4.67,0-5.72-1.72-1.05-5.78,3.72-6.18,6.1-.4,2.38-3.35,7.34-5.64,7.15-2.29-.19-5.05-2.1-7.62,.57-2.57,2.67-9.72,12.86-7.72,14.01,2,1.14,8-5.43,9.62-6.86Z" fill="#fff"/><path d="M200.1,183.87c.1,2.67,6,2.38,5.81,5.53-.19,3.14-3.62,5.43-1.91,5.91,1.72,.48,9.91-9.72,11.24-12.86,1.33-3.14,8-5.24,9.43-5.24s8.67-7.15,8.67-12.86-2.86-12.77-6.1-14.39c-3.24-1.62-2.76,1.19-1.91,2.26,.86,1.07,1.72,4.51,.86,6.12-.86,1.62-1.05,4.29-.48,5.34,.8,1.46-.86,4.67-1.24,5.05-.38,.38-.57,3.81-4.29,4.29-3.72,.48-7.37,3.24-11.21,4.86-3.84,1.62-8.99,3.33-8.89,6Z" fill="#fff"/><path d="M127.88,255.81c1.91,.95,12.39,1.43,14.48,2.86,2.1,1.43,9.34,7.05,12.77,6.96,3.43-.1,5.24-4.76,6.77-6.77,1.52-2,10.86-5.62,13.15-5.53,2.29,.1,9.81,.1,8.77-2.29-1.05-2.38-8.39-5.24-11.43-5.05-3.05,.19-9.12,3.43-11.95,3.62-2.82,.19-9.78-1.91-12.26-.57-2.48,1.33-5.43,2.86-8.39,2.76,0,0-5.15-.95-7.72-2-2.57-1.05-7.05,0-7.91,1-.86,1,1.81,4.05,3.72,5Z" fill="#fff"/><path d="M210.68,215.41c3.34,0,7.62,3.81,12.1,3.81s6.57-5.72,6.67-11.82c.1-6.1-4.95-7.91-4.95-7.91-4.57,0-5.43,3.72-10.39,7.72-4.95,4-8.48,.95-13.44,6.96-4.95,6-10.81,5.76-13.44,3.14-2.63-2.62-7.05,1.91-9.15,3.53-1.12,.87-2.69,3.09-3.04,4.98,9.06-.4,19.01-.91,28.43-1.46,.53-1.3,.67-2.71,.71-3.42,.1-1.52,3.14-5.53,6.48-5.53Z" fill="#fff"/><path d="M178.09,228.84c5.81,0,6.48-3.72,12.86-3.72s4.48,2.1,8.58,2.1c2.19,0,3.34-1.37,3.96-2.87-9.42,.55-19.37,1.07-28.43,1.46-.3,1.64,.33,3.03,3.04,3.03Z" fill="#fff"/><path d="M148.55,205.5c-3.14,0-5.34-2.1-9.15-2.1s-8.29,2.1-10.67,4.48c-2.38,2.38-5.19,4.15-3.81,5.53,1.38,1.38,5.43,1.05,6.48,2,1.05,.95,3.7,2.67,5.62,2.67,0,0,6.48-1.72,8.58-3.34,2.1-1.62,2.86-3.24,4.57-3.24s3.81,1.91,5.24,3.29c1.43,1.38,7.46,1.48,5.01-2.05-2.44-3.53-8.73-7.24-11.88-7.24Z" fill="#fff"/><path d="M69.46,203.88c1.34-1.34,4.38-2.86,6.86-2.86s7.43,4.57,10.48,7.62,6.67,6.38,10.77,6.38,5.25-2.86,5.25-5.43-5.39-9.1-8.3-12.01c-2.91-2.91-7.41-6.19-10.76-6.19s-2.68-1.62-5.25-1.62-6.19,3.14-8,5.91c-1.81,2.76-11.48,18.63-1.05,8.19Z" fill="#fff"/><path d="M170.66,171c-.67-.57-4.76-3.91-9.15-3.91s-7.15-5.43-16.58-5.43-9.53,5.24-14.39,5.24-3.1-6.15-7.91-1.33c0,0-6.96,5.72-8.96,7.53-2,1.81-1.72,3.91-.57,4,1.14,.1,1.35,.82,1.43,1.72,.05,.6,.95,1.43,4.19,1.43s8.62-1.48,12.96-5.81c4.34-4.34,10.62-3.05,14.75-3.05s7.08-1.52,10.12-1.52,8.58,4,12.1,3.53c3.53-.48,2.67-1.81,2-2.38Z" fill="#fff"/><path d="M94.72,139.85c2-2.77,2.38-11.73,11.53-11.73s7.15,8,12.2,8,10.1-4.86,10.1-14.67c0,0-2.86-6.38-9.72-7.53-6.86-1.14-5.62-2.95-10.86-2.95s-13.91,5.91-18.49,10.48-12.1,13.72-12.1,33.63c0,1.15,3.72,3.05,3.72,0s2.19-8,5.43-11.24,6.19-1.22,8.19-3.99Z" fill="#fff"/><path d="M201.44,110.21c-1.72,.86-3.72,2.29-3.72,2.95s2.95,2,2.95,4.67-1.05,5.81-2.95,4.76c-1.91-1.05-4.48-2-6.29-2s-5.91,2.1-6.96,3.72c-1.05,1.62-.57,5.24-.86,6.57-.29,1.33-4.13,6.57-6.16,7.34-2.03,.76-1.18,5.81,2.25,4.29,3.43-1.52,5.34-2.48,6.19-4.1,.86-1.62,3.19-8.39,6.07-8.39s3.84,6,8.13,6,7.62-4.1,7.62-9.81,2.95-8,5.81-9.72c2.86-1.72,7.24-4.1,5.81-5.53-1.43-1.43-8.5-2.38-11.62-2.38,0,0-4.57,.76-6.29,1.62Z" fill="#fff"/><path d="M181.52,66.47c-1.52-1.52,.57-2.67,.57-4.86s-2.29-2.76-4.38-3.14c-2.1-.38-4.48-2.86-5.53-1.43-1.05,1.43,.95,3.24,1.14,5.15,.19,1.91,2.38,4.67,4.1,6.1,1.72,1.43,3.14,6.4,8.39,6.4s4.38-4.5,8.1-4.5,3.91,4.67,5.91,6c2,1.33,5.62,1.52,5.62,5.05,0,1.05-1.91,4.57-1.91,6.57s2.38,4.95,4,4.95,4.67-6.38,4.67-12.1-1.52-9.72-4.95-12.96c-3.43-3.24-7.24-6.57-10.29-6.57s-4.1,3.91-7.91,3.91-6,2.95-7.53,1.43Z" fill="#fff"/><path d="M137.02,76.48c.95-.67,3.33-1.79,5.34-1.79,3.53,0,6.88,2.29,8.33,.84s3.67-4,6.15-4,2.48,.95,4.76,2.1c2.29,1.14,4.14,2.72,5.24,1.62,1.1-1.1-1.25-3.61-4-6.36-2.75-2.75-10.2-5.74-14.2-5.74s-9.29,2.62-10.86,4.19c-1.57,1.57-3.53,4.57-3.53,6.57s1.81,3.24,2.76,2.57Z" fill="#fff"/><path d="M101.2,63.9c1.05,0,2.86,3.14,5.05,3.14s5.34-4.53,8.67-4.53,3.72,1.76,5.72,1.76,3.81-1.91,3.81-3.53c0-3.24-5.43-8.67-8.02-9.24-2.58-.57-3.89,2.29-7.52,5.09-3.62,2.8-5.48,.3-10.2,5.01-4.72,4.72,1.43,2.29,2.48,2.29Z" fill="#fff"/><path d="M152.55,27.69c6.77,.86,4.1,2.29,6.96,3.57,2.86,1.29,3.53,5.86,8.96,3.86,5.43-2,10.01,.1,12.48,2.57s3,8.05,5.15,10.2c2.14,2.14,4.19,2.1,4.19-6.1,0,0-.38-7.72-8.19-12.01-7.81-4.29-14.67-9.05-24.68-9.05s-14.96,3.24-16.87,6.67c-1.91,3.43,5.24-.57,12.01,.29Z" fill="#fff"/></svg>